<?xml version="1.0" encoding="UTF-8" standalone="no"?>
<!DOCTYPE svg PUBLIC "-//W3C//DTD SVG 1.1//EN"
 "http://www.w3.org/Graphics/SVG/1.1/DTD/svg11.dtd">
<!-- Generated by graphviz version 2.34.0 (20131106.1252)
 -->
<!-- Title: g Pages: 1 -->
<svg width="333pt" height="516pt"
 viewBox="0.00 0.00 333.00 516.00" xmlns="http://www.w3.org/2000/svg" xmlns:xlink="http://www.w3.org/1999/xlink">
<g id="graph0" class="graph" transform="scale(1 1) rotate(0) translate(4 512)">
<title>g</title>
<polygon fill="white" stroke="white" points="-4,4 -4,-512 329,-512 329,4 -4,4"/>
<!-- N0 -->
<g id="node1" class="node"><title>N0</title>
<path fill="#ffffff" stroke="#2e3436" stroke-width="1.5" d="M170,-462.694C170,-462.694 200,-462.694 200,-462.694 206,-462.694 212,-468.694 212,-474.694 212,-474.694 212,-489.306 212,-489.306 212,-495.306 206,-501.306 200,-501.306 200,-501.306 170,-501.306 170,-501.306 164,-501.306 158,-495.306 158,-489.306 158,-489.306 158,-474.694 158,-474.694 158,-468.694 164,-462.694 170,-462.694"/>
<text text-anchor="middle" x="184.789" y="-489.306" font-family="FreeSans" font-size="8.00" fill="#1c2021">Node[0]</text>
<polyline fill="none" stroke="#2e3436" stroke-width="1.5" points="158,-482 211.578,-482 "/>
<text text-anchor="middle" x="184.789" y="-470" font-family="FreeSans" font-size="8.00" fill="#1c2021"> </text>
</g>
<!-- N17 -->
<g id="node2" class="node"><title>N17</title>
<path fill="#ffffff" stroke="#2e3436" stroke-width="1.5" d="M160.342,-368.694C160.342,-368.694 209.658,-368.694 209.658,-368.694 215.658,-368.694 221.658,-374.694 221.658,-380.694 221.658,-380.694 221.658,-395.306 221.658,-395.306 221.658,-401.306 215.658,-407.306 209.658,-407.306 209.658,-407.306 160.342,-407.306 160.342,-407.306 154.342,-407.306 148.342,-401.306 148.342,-395.306 148.342,-395.306 148.342,-380.694 148.342,-380.694 148.342,-374.694 154.342,-368.694 160.342,-368.694"/>
<text text-anchor="middle" x="185" y="-395.306" font-family="FreeSans" font-size="8.00" fill="#1c2021">Node[17]</text>
<polyline fill="none" stroke="#2e3436" stroke-width="1.5" points="148.342,-388 221.658,-388 "/>
<text text-anchor="start" x="156.342" y="-376" font-family="FreeSans" font-size="8.00" fill="#1c2021">type = &#39;spatial&#39;</text>
</g>
<!-- N0&#45;&gt;N17 -->
<g id="edge1" class="edge"><title>N0&#45;&gt;N17</title>
<path fill="none" stroke="#2e3436" stroke-width="2" d="M185,-462.382C185,-448.79 185,-430.183 185,-415.107"/>
<polygon fill="#2e3436" stroke="#2e3436" points="185,-407.59 188.375,-415.09 185.5,-411.34 185.5,-415.09 185,-415.09 184.5,-415.09 184.5,-411.34 181.625,-415.09 185,-407.59 185,-407.59"/>
<text text-anchor="middle" x="200.699" y="-429.653" font-family="FreeSans" font-size="8.00" fill="#2e3436">SPATIAL</text>
</g>
<!-- N18 -->
<g id="node3" class="node"><title>N18</title>
<path fill="#ffffff" stroke="#2e3436" stroke-width="1.5" d="M56.7129,-235.081C56.7129,-235.081 313.287,-235.081 313.287,-235.081 319.287,-235.081 325.287,-241.081 325.287,-247.081 325.287,-247.081 325.287,-306.919 325.287,-306.919 325.287,-312.919 319.287,-318.919 313.287,-318.919 313.287,-318.919 56.7129,-318.919 56.7129,-318.919 50.7129,-318.919 44.7129,-312.919 44.7129,-306.919 44.7129,-306.919 44.7129,-247.081 44.7129,-247.081 44.7129,-241.081 50.7129,-235.081 56.7129,-235.081"/>
<text text-anchor="middle" x="185" y="-306.919" font-family="FreeSans" font-size="8.00" fill="#1c2021">Node[18]</text>
<polyline fill="none" stroke="#2e3436" stroke-width="1.5" points="44.7129,-299.613 325.287,-299.613 "/>
<text text-anchor="start" x="52.7129" y="-287.613" font-family="FreeSans" font-size="8.00" fill="#1c2021">layer = &#39;geom&#39;</text>
<text text-anchor="start" x="52.7129" y="-276.306" font-family="FreeSans" font-size="8.00" fill="#1c2021">ctime = 1384521976923</text>
<text text-anchor="start" x="52.7129" y="-265" font-family="FreeSans" font-size="8.00" fill="#1c2021">geomencoder = &#39;org.neo4j.gis.spatial.encoders.SimplePointEncoder&#39;</text>
<text text-anchor="start" x="52.7129" y="-253.694" font-family="FreeSans" font-size="8.00" fill="#1c2021">layer_class = &#39;org.neo4j.gis.spatial.EditableLayerImpl&#39;</text>
<text text-anchor="start" x="52.7129" y="-242.388" font-family="FreeSans" font-size="8.00" fill="#1c2021">geomencoder_config = &#39;lon:lat&#39;</text>
</g>
<!-- N17&#45;&gt;N18 -->
<g id="edge2" class="edge"><title>N17&#45;&gt;N18</title>
<path fill="none" stroke="#4e9a06" stroke-width="2" d="M185,-368.51C185,-357.027 185,-341.685 185,-326.898"/>
<polygon fill="#4e9a06" stroke="#4e9a06" points="185,-319.24 188.375,-326.74 185.5,-322.99 185.5,-326.74 185,-326.74 184.5,-326.74 184.5,-322.99 181.625,-326.74 185,-319.24 185,-319.24"/>
<text text-anchor="middle" x="197.082" y="-341.653" font-family="FreeSans" font-size="8.00" fill="#4e9a06">LAYER</text>
</g>
<!-- N19 -->
<g id="node4" class="node"><title>N19</title>
<path fill="#ffffff" stroke="#2e3436" stroke-width="1.5" d="M11.7344,-140.694C11.7344,-140.694 126.266,-140.694 126.266,-140.694 132.266,-140.694 138.266,-146.694 138.266,-152.694 138.266,-152.694 138.266,-167.306 138.266,-167.306 138.266,-173.306 132.266,-179.306 126.266,-179.306 126.266,-179.306 11.7344,-179.306 11.7344,-179.306 5.73438,-179.306 -0.265625,-173.306 -0.265625,-167.306 -0.265625,-167.306 -0.265625,-152.694 -0.265625,-152.694 -0.265625,-146.694 5.73438,-140.694 11.7344,-140.694"/>
<text text-anchor="middle" x="69" y="-167.306" font-family="FreeSans" font-size="8.00" fill="#1c2021">Node[19]</text>
<polyline fill="none" stroke="#2e3436" stroke-width="1.5" points="-0.265625,-160 138.266,-160 "/>
<text text-anchor="start" x="7.73438" y="-148" font-family="FreeSans" font-size="8.00" fill="#1c2021">bbox = [15.2, 60.1, 15.2, 60.1]</text>
</g>
<!-- N18&#45;&gt;N19 -->
<g id="edge3" class="edge"><title>N18&#45;&gt;N19</title>
<path fill="none" stroke="#a40000" stroke-width="2" d="M143.449,-234.807C126.576,-218.08 107.678,-199.345 93.1444,-184.936"/>
<polygon fill="#a40000" stroke="#a40000" points="87.6022,-179.442 95.3046,-182.325 90.6174,-181.727 93.2805,-184.367 92.9284,-184.722 92.5764,-185.077 89.9133,-182.437 90.5523,-187.119 87.6022,-179.442 87.6022,-179.442"/>
<text text-anchor="middle" x="149.197" y="-207.653" font-family="FreeSans" font-size="8.00" fill="#a40000">RTREE_ROOT</text>
</g>
<!-- N20 -->
<g id="node5" class="node"><title>N20</title>
<path fill="#ffffff" stroke="#2e3436" stroke-width="1.5" d="M179.025,-135.041C179.025,-135.041 276.975,-135.041 276.975,-135.041 282.975,-135.041 288.975,-141.041 288.975,-147.041 288.975,-147.041 288.975,-172.959 288.975,-172.959 288.975,-178.959 282.975,-184.959 276.975,-184.959 276.975,-184.959 179.025,-184.959 179.025,-184.959 173.025,-184.959 167.025,-178.959 167.025,-172.959 167.025,-172.959 167.025,-147.041 167.025,-147.041 167.025,-141.041 173.025,-135.041 179.025,-135.041"/>
<text text-anchor="middle" x="228" y="-172.959" font-family="FreeSans" font-size="8.00" fill="#1c2021">Node[20]</text>
<polyline fill="none" stroke="#2e3436" stroke-width="1.5" points="167.025,-165.653 288.975,-165.653 "/>
<text text-anchor="start" x="175.025" y="-153.653" font-family="FreeSans" font-size="8.00" fill="#1c2021">maxNodeReferences = 100</text>
<text text-anchor="start" x="175.025" y="-142.347" font-family="FreeSans" font-size="8.00" fill="#1c2021">totalGeometryCount = 1</text>
</g>
<!-- N18&#45;&gt;N20 -->
<g id="edge4" class="edge"><title>N18&#45;&gt;N20</title>
<path fill="none" stroke="#204a87" stroke-width="2" d="M200.403,-234.807C205.6,-220.907 211.315,-205.621 216.191,-192.584"/>
<polygon fill="#204a87" stroke="#204a87" points="218.953,-185.194 219.488,-193.401 218.108,-188.882 216.795,-192.394 216.327,-192.219 215.858,-192.044 217.172,-188.532 213.165,-191.037 218.953,-185.194 218.953,-185.194"/>
<text text-anchor="middle" x="247.871" y="-207.653" font-family="FreeSans" font-size="8.00" fill="#204a87">RTREE_METADATA</text>
</g>
<!-- N22 -->
<g id="node6" class="node"><title>N22</title>
<path fill="#ffffff" stroke="#2e3436" stroke-width="1.5" d="M11.7344,-1.08125C11.7344,-1.08125 126.266,-1.08125 126.266,-1.08125 132.266,-1.08125 138.266,-7.08125 138.266,-13.0812 138.266,-13.0812 138.266,-72.9188 138.266,-72.9188 138.266,-78.9188 132.266,-84.9188 126.266,-84.9188 126.266,-84.9188 11.7344,-84.9188 11.7344,-84.9188 5.73438,-84.9188 -0.265625,-78.9188 -0.265625,-72.9188 -0.265625,-72.9188 -0.265625,-13.0812 -0.265625,-13.0812 -0.265625,-7.08125 5.73438,-1.08125 11.7344,-1.08125"/>
<text text-anchor="middle" x="69" y="-72.9188" font-family="FreeSans" font-size="8.00" fill="#1c2021">Node[22]</text>
<polyline fill="none" stroke="#2e3436" stroke-width="1.5" points="-0.265625,-65.6125 138.266,-65.6125 "/>
<text text-anchor="start" x="7.73438" y="-53.6125" font-family="FreeSans" font-size="8.00" fill="#1c2021">gtype = 1</text>
<text text-anchor="start" x="7.73438" y="-42.3063" font-family="FreeSans" font-size="8.00" fill="#1c2021">bbox = [15.2, 60.1, 15.2, 60.1]</text>
<text text-anchor="start" x="7.73438" y="-31" font-family="FreeSans" font-size="8.00" fill="#1c2021">lat = 60.1</text>
<text text-anchor="start" x="7.73438" y="-19.6938" font-family="FreeSans" font-size="8.00" fill="#1c2021">lon = 15.2</text>
<text text-anchor="start" x="7.73438" y="-8.3875" font-family="FreeSans" font-size="8.00" fill="#1c2021">id = 21</text>
</g>
<!-- N19&#45;&gt;N22 -->
<g id="edge5" class="edge"><title>N19&#45;&gt;N22</title>
<path fill="none" stroke="#8f5902" stroke-width="2" d="M69,-140.523C69,-127.639 69,-109.806 69,-92.9709"/>
<polygon fill="#8f5902" stroke="#8f5902" points="69,-85.3273 72.3751,-92.8272 69.5,-89.0772 69.5001,-92.8272 69.0001,-92.8273 68.5001,-92.8273 68.5,-89.0773 65.6251,-92.8273 69,-85.3273 69,-85.3273"/>
<text text-anchor="middle" x="104.521" y="-107.653" font-family="FreeSans" font-size="8.00" fill="#8f5902">RTREE_REFERENCE</text>
</g>
<!-- N21 -->
<g id="node7" class="node"><title>N21</title>
<path fill="#ffffff" stroke="#2e3436" stroke-width="1.5" d="M253.34,-457.041C253.34,-457.041 286.66,-457.041 286.66,-457.041 292.66,-457.041 298.66,-463.041 298.66,-469.041 298.66,-469.041 298.66,-494.959 298.66,-494.959 298.66,-500.959 292.66,-506.959 286.66,-506.959 286.66,-506.959 253.34,-506.959 253.34,-506.959 247.34,-506.959 241.34,-500.959 241.34,-494.959 241.34,-494.959 241.34,-469.041 241.34,-469.041 241.34,-463.041 247.34,-457.041 253.34,-457.041"/>
<text text-anchor="middle" x="270" y="-494.959" font-family="FreeSans" font-size="8.00" fill="#1c2021">Node[21]</text>
<polyline fill="none" stroke="#2e3436" stroke-width="1.5" points="241.34,-487.653 298.66,-487.653 "/>
<text text-anchor="start" x="249.34" y="-475.653" font-family="FreeSans" font-size="8.00" fill="#1c2021">lat = 60.1</text>
<text text-anchor="start" x="249.34" y="-464.347" font-family="FreeSans" font-size="8.00" fill="#1c2021">lon = 15.2</text>
</g>
</g>
</svg>
